<svg width="600" height="600" xmlns="http://www.w3.org/2000/svg"><g stroke="#999" fill="#999"><path d="M347.795 298.5c0 28.88-23.415 52.295-52.295 52.295s-52.295-23.415-52.295-52.295 23.415-52.295 52.295-52.295 52.295 23.415 52.295 52.295zm0 0"/><path d="M383.82 140.453H207.18c-38.45 0-69.727 31.277-69.727 69.727v176.64c0 38.45 31.277 69.727 69.727 69.727h176.64c38.45 0 69.727-31.277 69.727-69.727V210.18c0-38.45-31.277-69.727-69.727-69.727zM295.5 385.658c-48.06 0-87.158-39.098-87.158-87.158s39.098-87.158 87.158-87.158 87.158 39.098 87.158 87.158-39.098 87.158-87.158 87.158zm99.941-169.668c-9.628 0-17.431-7.803-17.431-17.431s7.803-17.432 17.431-17.432 17.432 7.803 17.432 17.432-7.803 17.431-17.432 17.431zm0 0"/><path d="M436.115 1h-281.23C68.38 1-2 71.38-2 157.885v281.23C-2 525.62 68.38 596 154.885 596h281.23C522.62 596 593 525.62 593 439.115v-281.23C593 71.38 522.62 1 436.115 1zm52.295 385.82c0 57.67-46.92 104.59-104.59 104.59H207.18c-57.67 0-104.59-46.92-104.59-104.59V210.18c0-57.67 46.92-104.59 104.59-104.59h176.64c57.67 0 104.59 46.92 104.59 104.59v176.64zm0 0"/></g></svg>