<svg width="600" height="600" xmlns="http://www.w3.org/2000/svg"><path stroke="null" d="M545.316.5H54.684C24.76.5.5 24.76.5 54.684v490.63C.5 575.24 24.76 599.5 54.684 599.5h490.63c29.926 0 54.186-24.26 54.186-54.186V54.684C599.5 24.76 575.24.5 545.316.5zm-359.46 517.216c0 8.71-7.06 15.769-15.768 15.769h-67.123c-8.709 0-15.768-7.06-15.768-15.769V236.341c0-8.709 7.059-15.768 15.768-15.768h67.123c8.709 0 15.768 7.06 15.768 15.768v281.375zm-49.33-323.667c-35.217 0-63.767-28.55-63.767-63.767s28.55-63.767 63.767-63.767 63.767 28.55 63.767 63.767-28.548 63.767-63.767 63.767zm400.11 324.937c0 8.007-6.491 14.499-14.498 14.499h-72.027c-8.007 0-14.499-6.492-14.499-14.499v-131.98c0-19.69 5.776-86.277-51.453-86.277-44.39 0-53.394 45.577-55.202 66.031v152.226c0 8.007-6.49 14.499-14.498 14.499h-69.663c-8.006 0-14.498-6.492-14.498-14.499V235.071c0-8.006 6.492-14.498 14.498-14.498h69.663c8.007 0 14.498 6.492 14.498 14.498v24.548c16.46-24.701 40.922-43.768 93.005-43.768 115.334 0 114.674 107.751 114.674 166.955v136.18h0z" fill="#999"/></svg>