<svg width="600" height="600" xmlns="http://www.w3.org/2000/svg"><path stroke="null" fill="#999" d="M585.678 151.73c-6.891-25.618-27.09-45.813-52.705-52.712-46.795-12.803-233.98-12.803-233.98-12.803s-187.178 0-233.974 12.318c-25.122 6.891-45.813 27.582-52.704 53.197C0 198.522 0 295.562 0 295.562s0 97.53 12.315 143.832c6.898 25.615 27.09 45.81 52.708 52.708C112.308 504.909 299 504.909 299 504.909s187.178 0 233.973-12.318c25.619-6.895 45.814-27.09 52.712-52.705 12.311-46.795 12.311-143.831 12.311-143.831s.493-97.533-12.318-144.325zm-346.28 233.48V205.914l155.653 89.649-155.654 89.649zm0 0"/></svg>