<svg width="600" height="600" xmlns="http://www.w3.org/2000/svg">
 <g>
  <title>Layer 1</title>
  <g stroke="#8B4D4B" id="svg_1" fill="white">
   <path stroke="#999999" id="svg_2" d="m347.79492,298.49999c0,28.88023 -23.41469,52.29492 -52.29492,52.29492s-52.29492,-23.41469 -52.29492,-52.29492s23.41469,-52.29492 52.29492,-52.29492s52.29492,23.41469 52.29492,52.29492zm0,0" fill="#999999"/>
   <path stroke="#999999" id="svg_3" d="m383.82031,140.45311l-176.64063,0c-38.44948,0 -69.72656,31.27708 -69.72656,69.72656l0,176.64063c0,38.44948 31.27708,69.72656 69.72656,69.72656l176.64063,0c38.44948,0 69.72656,-31.27708 69.72656,-69.72656l0,-176.64063c0,-38.44948 -31.27708,-69.72656 -69.72656,-69.72656zm-88.32032,245.20509c-48.05958,0 -87.15821,-39.09862 -87.15821,-87.15821s39.09862,-87.15821 87.15821,-87.15821s87.15821,39.09862 87.15821,87.15821s-39.09862,87.15821 -87.15821,87.15821zm99.94141,-169.66797c-9.62826,0 -17.43164,-7.80338 -17.43164,-17.43164s7.80338,-17.43164 17.43164,-17.43164s17.43164,7.80338 17.43164,17.43164s-7.80338,17.43164 -17.43164,17.43164zm0,0" fill="#999999"/>
   <path stroke="#999999" id="svg_4" d="m436.11523,0.99998l-281.23048,0c-86.50452,0 -156.88477,70.38025 -156.88477,156.88477l0,281.23048c0,86.50452 70.38025,156.88477 156.88477,156.88477l281.23048,0c86.50452,0 156.88477,-70.38025 156.88477,-156.88477l0,-281.23048c0,-86.50452 -70.38025,-156.88477 -156.88477,-156.88477zm52.29492,385.82032c0,57.66968 -46.92017,104.58985 -104.58985,104.58985l-176.64063,0c-57.66968,0 -104.58985,-46.92017 -104.58985,-104.58985l0,-176.64063c0,-57.66968 46.92017,-104.58985 104.58985,-104.58985l176.64063,0c57.66968,0 104.58985,46.92017 104.58985,104.58985l0,176.64063zm0,0" fill="#999999"/>
  </g>
 </g>

</svg>