<svg width="600" height="600" xmlns="http://www.w3.org/2000/svg" version="1.1" xml:space="preserve">
 <g>
  <title>Layer 1</title>
  <path stroke="null" d="m545.31557,0.5l-490.63116,0c-29.92491,0 -54.18441,24.2595 -54.18441,54.18441l0,490.6296c0,29.92648 24.2595,54.18598 54.18441,54.18598l490.6296,0c29.92648,0 54.18598,-24.2595 54.18598,-54.18598l0,-490.6296c0,-29.92491 -24.2595,-54.18441 -54.18441,-54.18441zm-359.45958,517.2161c0,8.70902 -7.05942,15.76844 -15.76844,15.76844l-67.1225,0c-8.70902,0 -15.76844,-7.05942 -15.76844,-15.76844l0,-281.37475c0,-8.70902 7.05942,-15.76844 15.76844,-15.76844l67.1225,0c8.70902,0 15.76844,7.05942 15.76844,15.76844l0,281.37475zm-49.32969,-323.66698c-35.21712,0 -63.76684,-28.54972 -63.76684,-63.76684s28.54972,-63.76684 63.76684,-63.76684s63.76684,28.54972 63.76684,63.76684s-28.54815,63.76684 -63.76684,63.76684zm400.11004,324.93711c0,8.00653 -6.49178,14.49831 -14.49831,14.49831l-72.0274,0c-8.00653,0 -14.49831,-6.49178 -14.49831,-14.49831l0,-131.98071c0,-19.6886 5.77518,-86.27638 -51.45284,-86.27638c-44.39029,0 -53.39411,45.57731 -55.20208,66.03112l0,152.22597c0,8.00653 -6.49021,14.49831 -14.49831,14.49831l-69.66276,0c-8.00653,0 -14.49831,-6.49178 -14.49831,-14.49831l0,-283.91502c0,-8.00653 6.49178,-14.49831 14.49831,-14.49831l69.66276,0c8.00653,0 14.49831,6.49178 14.49831,14.49831l0,24.54802c16.45996,-24.70169 40.92173,-43.76777 93.00494,-43.76777c115.33415,0 114.674,107.751 114.674,166.95478l0,136.17998l0,0z" fill="#999999" id="svg_1"/>
  <g id="svg_2"/>
  <g id="svg_3"/>
  <g id="svg_4"/>
  <g id="svg_5"/>
  <g id="svg_6"/>
  <g id="svg_7"/>
  <g id="svg_8"/>
  <g id="svg_9"/>
  <g id="svg_10"/>
  <g id="svg_11"/>
  <g id="svg_12"/>
  <g id="svg_13"/>
  <g id="svg_14"/>
  <g id="svg_15"/>
  <g id="svg_16"/>
 </g>

</svg>