<svg width="600" height="600" xmlns="http://www.w3.org/2000/svg">
 <g>
  <title>Layer 1</title>
  <path stroke="null" fill="#999999" id="svg_1" d="m585.67787,151.73036c-6.89101,-25.61866 -27.08957,-45.81357 -52.70458,-52.71189c-46.79539,-12.80385 -233.9806,-12.80385 -233.9806,-12.80385s-187.17792,0 -233.97331,12.31842c-25.12228,6.89101 -45.81357,27.58231 -52.70458,53.19732c-12.31477,46.79174 -12.31477,143.83168 -12.31477,143.83168s0,97.52903 12.31477,143.83168c6.89831,25.61502 27.08957,45.80992 52.70823,52.70824c47.28448,12.8075 233.97696,12.8075 233.97696,12.8075s187.17792,0 233.97331,-12.31842c25.61866,-6.89467 45.81357,-27.08957 52.71188,-52.70458c12.31112,-46.79539 12.31112,-143.83169 12.31112,-143.83169s0.49274,-97.53267 -12.31842,-144.32441zm-346.28078,233.48056l0,-179.29777l155.65372,89.64889l-155.65372,89.64889zm0,0"/>
 </g>

</svg>